<svg version="1.1" id="Layer_1" xmlns="http://www.w3.org/2000/svg" xmlns:xlink="http://www.w3.org/1999/xlink" x="0px" y="0px"
	 width="100%" viewBox="0 0 1024 1024" enable-background="new 0 0 1024 1024" xml:space="preserve">
<path fill="#000000" opacity="1.000000" stroke="none" 
	d="
M445.987671,270.790588 
	C468.846771,265.344727 491.703644,262.318970 514.689575,263.024872 
	C626.020447,266.443817 710.304504,316.321716 766.808289,412.286011 
	C786.398315,445.557098 797.202637,482.023529 801.353088,520.414612 
	C802.068054,527.028137 802.737671,533.661011 803.012390,540.302063 
	C803.161255,543.900024 804.231812,546.320618 807.164490,548.674927 
	C816.456665,556.134521 819.224731,568.243469 814.595703,578.857788 
	C810.251343,588.819153 799.406128,595.252197 788.802429,594.157593 
	C777.446777,592.985352 768.117371,584.647400 766.126526,573.375549 
	C764.401733,563.609924 767.240784,555.099304 775.001343,548.809326 
	C777.951050,546.418579 779.053223,544.057861 778.870789,540.368408 
	C776.123108,484.787079 757.659424,434.897614 723.659424,391.029816 
	C685.034912,341.195282 634.806213,308.789551 573.398132,294.082703 
	C543.497070,286.921570 513.238342,285.292114 482.666656,288.962128 
	C418.945587,296.611664 365.003418,324.031738 320.888428,370.239075 
	C282.708221,410.230164 259.290680,457.981323 250.550659,512.670288 
	C248.848312,523.322388 248.522247,534.190918 247.420410,544.945129 
	C247.140045,547.681519 248.453781,549.139404 250.340240,550.779297 
	C258.395477,557.781860 261.265228,566.663147 258.247314,576.879333 
	C255.033798,587.757874 247.258942,594.008118 236.032104,594.787537 
	C225.731155,595.502747 217.625839,591.004395 212.484863,581.795715 
	C206.469269,571.020203 209.558472,557.233643 219.782303,549.706238 
	C222.035385,548.047424 223.641800,546.537109 223.753708,543.370972 
	C226.205215,474.019714 250.137604,413.043182 296.040741,361.007782 
	C335.496277,316.281403 384.349030,286.558014 442.196838,271.757141 
	C443.325958,271.468292 444.450409,271.161194 445.987671,270.790588 
z"/>
<path fill="#000000" opacity="1.000000" stroke="none" 
	d="
M450.000061,643.739685 
	C564.796753,643.749207 679.093445,643.771179 793.390137,643.733582 
	C798.962769,643.731750 804.377930,644.231567 809.491455,646.524719 
	C812.882446,648.045349 816.372864,649.779541 816.460266,654.155090 
	C816.552185,658.752625 813.141418,660.734009 809.466980,662.269348 
	C803.990845,664.557495 798.223816,665.161255 792.351624,665.161133 
	C668.391357,665.157776 544.431091,665.160706 420.470856,665.160645 
	C358.490723,665.160645 296.510590,665.161255 234.530472,665.148865 
	C228.175171,665.147583 221.859787,664.768311 215.964111,662.041321 
	C212.656204,660.511353 209.785583,658.422729 209.727386,654.364685 
	C209.667526,650.190918 212.774338,648.308167 216.032562,646.804382 
	C221.269180,644.387451 226.818756,643.691711 232.569595,643.695984 
	C304.879730,643.750183 377.189880,643.736572 450.000061,643.739685 
z"/>
<path fill="#000000" opacity="1.000000" stroke="none" 
	d="
M352.026428,498.634033 
	C390.848114,498.630066 429.174652,498.622986 467.501160,498.626770 
	C506.643372,498.630646 545.785583,498.643951 584.927795,498.656342 
	C591.654175,498.658478 591.671509,498.666016 591.681824,492.140808 
	C591.693665,484.642181 591.460632,477.135529 591.743408,469.647858 
	C591.907349,465.306427 590.639404,462.813751 586.493958,460.754028 
	C573.422241,454.259186 565.835938,439.514801 567.962830,426.014740 
	C570.446838,410.248291 581.492676,399.081024 597.093018,396.564087 
	C612.256409,394.117706 628.107361,403.181183 633.681946,417.485535 
	C639.683472,432.885681 634.772461,451.092926 620.755676,458.587799 
	C612.902954,462.786713 611.441223,467.784454 611.861084,475.540100 
	C612.400818,485.509125 612.077271,495.530273 611.970886,505.527344 
	C611.866882,515.297058 608.669250,518.404785 599.058960,518.415039 
	C563.917480,518.452454 528.775879,518.450256 493.634491,518.528687 
	C462.820190,518.597473 432.004272,519.001404 401.192596,518.776062 
	C383.868591,518.649292 366.552979,518.255310 349.231140,518.858093 
	C346.749847,518.944397 344.204102,518.841431 341.773834,518.377441 
	C337.068268,517.479065 333.687592,512.987244 333.800262,508.239410 
	C333.911163,503.566986 337.657104,499.342621 342.542816,498.807709 
	C345.509674,498.482910 348.533173,498.675537 352.026428,498.634033 
M600.004883,419.207794 
	C598.634827,419.768799 597.130676,420.126251 595.917542,420.925446 
	C590.125732,424.741058 588.895081,432.118408 593.073547,437.329956 
	C597.387695,442.710785 604.859802,443.349152 609.772095,438.505432 
	C613.022827,435.300079 614.700195,431.385071 612.868225,426.756714 
	C610.717712,421.323486 606.664673,418.763580 600.004883,419.207794 
z"/>
<path fill="#000000" opacity="1.000000" stroke="none" 
	d="
M429.997040,466.161194 
	C407.335205,466.163086 385.171234,466.303345 363.011383,466.064270 
	C357.970093,466.009857 354.163116,467.163116 350.732727,471.012970 
	C345.973938,476.353699 340.772400,481.315735 335.569458,486.238068 
	C333.035431,488.635437 332.204346,490.847168 332.952240,494.527649 
	C336.004852,509.550232 326.599945,523.075195 311.588257,525.944885 
	C297.645508,528.610229 283.954773,518.798889 281.208618,504.173492 
	C277.838837,486.226929 293.680115,470.682556 312.298706,474.142975 
	C316.770935,474.974152 319.378967,473.751740 322.311584,470.803894 
	C345.344757,447.651062 368.503174,424.622894 391.611389,401.544647 
	C398.939850,394.225677 403.681061,394.199463 411.050323,401.562866 
	C436.033569,426.526184 461.007660,451.498627 485.979980,476.472900 
	C487.039246,477.532196 488.150726,478.563416 489.058929,479.745239 
	C492.362823,484.044708 492.071808,489.796539 488.450684,493.428131 
	C484.803131,497.086121 478.997284,497.549072 474.854980,493.926605 
	C470.223389,489.876160 466.008606,485.348785 461.616272,481.025116 
	C460.547546,479.973083 459.329590,479.025177 458.459137,477.826813 
	C451.495270,468.239655 442.359070,463.958252 429.997040,466.161194 
M394.676361,427.181519 
	C388.931976,432.939941 383.187592,438.698364 376.491180,445.411133 
	C393.706390,445.411133 409.085754,445.411133 424.522247,445.411133 
	C424.512573,443.322510 423.054993,442.554230 422.069458,441.552277 
	C416.468475,435.857941 410.641907,430.375916 405.224579,424.514374 
	C402.247803,421.293488 399.941681,420.987030 397.276703,424.552368 
	C396.685181,425.343781 395.880127,425.975616 394.676361,427.181519 
M314.849579,503.202972 
	C316.457672,499.780212 315.819489,496.684814 313.281494,494.026550 
	C311.060944,491.700714 308.290497,490.742310 305.098877,491.608276 
	C301.073425,492.700500 298.810638,495.645996 298.595886,499.545074 
	C298.403687,503.034393 300.160217,506.177185 303.677155,507.395660 
	C307.991211,508.890289 311.916473,508.197327 314.849579,503.202972 
z"/>
<path fill="#000000" opacity="1.000000" stroke="none" 
	d="
M648.702759,438.869202 
	C667.980652,404.541687 716.116882,402.420074 737.737671,435.635284 
	C749.244324,453.312653 749.641541,472.263489 738.720215,490.437225 
	C727.940430,508.375580 711.418945,517.085571 690.457092,515.420288 
	C652.451233,512.401062 631.735046,474.390747 648.702759,438.869202 
M707.574219,451.975861 
	C701.943481,445.929382 695.089294,444.435486 687.546326,447.316498 
	C680.726746,449.921173 677.016296,455.335693 676.370056,462.567108 
	C675.663025,470.479126 680.499023,477.808502 687.895935,480.600647 
	C695.249939,483.376648 703.574097,480.992065 708.511780,474.694885 
	C713.477844,468.361481 713.308167,459.874451 707.574219,451.975861 
z"/>
<path fill="#000000" opacity="1.000000" stroke="none" 
	d="
M617.299316,533.906799 
	C636.398560,529.343079 657.084045,540.970825 661.906555,560.885010 
	C666.591248,580.230286 655.237671,600.119385 636.641418,605.255066 
	C617.006104,610.677734 596.486572,600.082886 590.935059,581.655579 
	C584.814514,561.339172 594.795898,541.488647 614.516235,534.764160 
	C615.303284,534.495789 616.099976,534.255615 617.299316,533.906799 
M636.012146,562.588013 
	C630.837769,557.231201 625.724731,555.975098 620.426819,558.759216 
	C615.682800,561.252319 612.603210,567.336853 613.791687,572.141541 
	C615.103271,577.444031 618.312866,580.965271 623.798889,582.076477 
	C628.701172,583.069275 632.686523,581.246338 635.706726,577.518738 
	C639.356201,573.014648 639.641296,568.145386 636.012146,562.588013 
z"/>
<path fill="#000000" opacity="1.000000" stroke="none" 
	d="
M515.491089,555.765015 
	C523.085449,539.890747 537.997498,530.926697 552.786194,533.078430 
	C570.604248,535.670898 583.172302,547.165894 586.020081,563.474915 
	C588.640503,578.481628 581.710754,593.781372 568.764404,601.572388 
	C555.537781,609.532104 538.774597,608.353455 526.199707,598.579712 
	C514.950439,589.836304 510.036072,573.757385 514.246582,559.437805 
	C514.574524,558.322510 514.973206,557.228027 515.491089,555.765015 
M556.040771,559.317871 
	C549.603760,556.504517 544.937805,557.030518 540.907715,561.023987 
	C537.229187,564.669067 536.093933,570.255554 538.152649,574.802246 
	C540.359924,579.677002 544.362854,582.151672 549.510803,582.465881 
	C554.261047,582.755737 559.824341,578.619202 561.254944,573.858826 
	C562.956604,568.196228 561.448303,563.378357 556.040771,559.317871 
z"/>
<path fill="#000000" opacity="1.000000" stroke="none" 
	d="
M326.261017,528.831970 
	C341.530914,529.959106 350.594208,537.055054 352.933624,549.033081 
	C353.664734,552.776367 352.582703,554.363464 348.774841,554.368347 
	C346.963074,554.370667 345.152771,554.831604 343.340240,555.073303 
	C338.981415,555.654602 334.953400,555.892578 334.093658,549.899963 
	C333.805542,547.891724 331.859985,546.734070 330.041107,545.736145 
	C325.415283,543.198242 320.668549,542.885742 315.736542,544.643921 
	C313.032074,545.607971 311.047363,547.385193 310.623444,550.249084 
	C310.189209,553.182617 312.215698,554.891785 314.582123,555.976929 
	C317.606506,557.363708 320.824677,558.165833 324.089661,558.914001 
	C332.637238,560.872925 342.020935,561.568115 348.269226,568.506836 
	C353.793823,574.641846 356.510010,582.278625 354.105499,590.793579 
	C351.703369,599.300171 346.389923,604.905273 337.529938,606.853210 
	C334.327667,607.557190 331.463318,609.406311 327.971619,609.277161 
	C324.944397,609.165161 322.912079,608.589966 324.002747,604.976868 
	C324.252136,604.150696 324.220459,603.550720 323.987518,602.686584 
	C322.155426,595.891296 323.102386,594.021545 330.017151,592.738342 
	C334.154053,591.970520 335.695312,589.594910 335.902771,585.984802 
	C336.092651,582.681152 333.852386,581.073914 331.298615,579.139587 
	C326.250519,575.315918 320.168549,577.744141 314.960297,575.448914 
	C311.786377,574.050293 308.210571,573.570496 305.020447,572.200378 
	C295.584381,568.147705 291.218719,560.780029 291.737457,550.354553 
	C292.195831,541.142151 297.444458,534.410461 306.749390,531.242371 
	C309.109253,530.438904 311.522247,529.741821 313.959412,529.224670 
	C321.067963,527.716187 322.097656,528.517212 322.548492,535.728943 
	C323.753754,533.382568 321.931396,529.711182 326.261017,528.831970 
z"/>
<path fill="#000000" opacity="1.000000" stroke="none" 
	d="
M504.694580,441.999939 
	C504.698059,425.024078 504.693970,408.548248 504.710693,392.072388 
	C504.715820,386.995819 505.641022,382.113434 508.484100,377.817657 
	C512.028503,372.462189 517.370056,372.468048 521.023743,377.774200 
	C523.772644,381.766357 524.509094,386.334778 524.586731,391.066772 
	C525.072388,420.674591 525.593994,450.282074 524.363953,479.886139 
	C524.228394,483.150055 523.109924,486.107910 521.505798,488.826050 
	C517.975220,494.808289 511.486572,494.836273 507.985382,488.853027 
	C505.683350,484.919037 504.680847,480.543213 504.688568,475.950989 
	C504.707367,464.800690 504.694885,453.650299 504.694580,441.999939 
z"/>
<path fill="#000000" opacity="1.000000" stroke="none" 
	d="
M388.146210,546.065063 
	C377.214539,550.602417 375.198090,562.764038 375.664062,571.459595 
	C375.907623,576.004944 376.732422,580.597107 379.461090,584.715088 
	C381.677948,588.060547 384.220123,590.574707 387.923401,592.084900 
	C392.543976,593.969238 396.051666,603.048950 393.495789,607.305420 
	C391.417969,610.765869 387.698700,608.887146 385.026276,608.284058 
	C361.784027,603.039246 355.318054,581.278931 356.357269,565.781555 
	C357.537933,548.174866 365.617188,535.892273 382.622711,530.161133 
	C386.003113,529.021912 390.416107,526.949036 392.960175,529.892334 
	C395.660187,533.016113 394.458252,537.838928 393.770660,541.928528 
	C393.299225,544.732605 390.595398,545.029175 388.146210,546.065063 
z"/>
<path fill="#000000" opacity="1.000000" stroke="none" 
	d="
M485.200195,606.748535 
	C485.036835,582.081055 484.980286,557.813354 484.816284,533.546448 
	C484.791382,529.863525 486.316772,528.705566 489.910126,528.633911 
	C504.337036,528.346558 504.345490,528.249451 504.315704,542.562134 
	C504.272736,563.198730 504.118561,583.835876 504.243744,604.471436 
	C504.267456,608.376038 502.803101,609.454651 499.257263,609.215332 
	C496.297424,609.015625 493.310059,609.259338 490.341125,609.145142 
	C488.469543,609.073181 486.181458,609.773743 485.200195,606.748535 
z"/>
<path fill="#000000" opacity="1.000000" stroke="none" 
	d="
M673.048950,600.120972 
	C672.926575,577.765137 672.926514,555.835144 672.774719,533.906250 
	C672.748291,530.083496 674.083008,528.563538 678.003540,528.632446 
	C694.765625,528.927307 692.187073,526.378540 692.167236,542.304504 
	C692.141235,563.235229 692.666931,584.168884 691.869568,605.104309 
	C691.729431,608.785095 690.380859,609.343506 687.509583,609.271545 
	C685.518066,609.221619 683.525208,609.195251 681.533142,609.205505 
	C672.584473,609.251587 672.584534,609.257629 673.048950,600.120972 
z"/>
<path fill="#000000" opacity="1.000000" stroke="none" 
	d="
M432.514038,544.174927 
	C433.481720,541.342102 433.946167,539.326599 432.390656,536.508179 
	C429.839050,531.885071 432.548584,528.689636 437.871674,528.916016 
	C440.507812,529.028198 443.170013,528.923157 445.800201,528.688843 
	C449.893707,528.324219 451.558685,530.000610 451.340973,534.140991 
	C450.765381,545.086975 451.007629,556.070679 450.898224,567.012756 
	C450.787537,578.089722 451.162415,589.231445 451.114624,600.344727 
	C451.101929,603.291382 452.878235,607.569092 448.897095,608.659668 
	C445.361816,609.628052 441.201630,608.895813 439.012299,604.580261 
	C437.514313,605.684448 438.974396,608.646729 436.443298,608.234619 
	C434.548645,607.926086 433.409302,606.453186 432.688171,604.627197 
	C431.027924,600.423218 432.096008,596.038147 431.994873,591.789490 
	C431.710327,579.833618 432.182831,567.861389 432.204620,555.895386 
	C432.211487,552.112305 431.302612,548.320251 432.514038,544.174927 
z"/>
<path fill="#000000" opacity="1.000000" stroke="none" 
	d="
M432.222412,731.376587 
	C429.473999,721.579895 431.477386,713.595215 437.834106,708.889954 
	C442.625031,705.343811 447.836121,704.808594 453.399689,707.154968 
	C458.177582,709.170166 458.705597,708.772461 458.803406,703.549744 
	C458.875092,699.722656 458.896790,695.892090 458.821136,692.065430 
	C458.758270,688.885315 460.161621,687.627380 463.355591,687.671387 
	C466.550934,687.715454 467.270874,689.405884 467.264465,692.121277 
	C467.229980,706.768799 467.257111,721.416504 467.224335,736.064087 
	C467.220673,737.689453 467.412506,739.684204 465.248230,740.132568 
	C462.629150,740.675110 459.930237,740.925964 458.137756,738.261902 
	C447.516205,744.984741 437.859680,743.100342 432.222412,731.376587 
M459.612000,722.809509 
	C459.301361,720.580688 458.170197,718.775391 456.622528,717.223511 
	C453.379883,713.972046 448.484192,713.160217 444.774170,715.453552 
	C441.182861,717.673584 438.733368,720.722900 439.511017,725.283630 
	C440.251801,729.628235 444.404419,733.151489 448.946075,733.539734 
	C454.413727,734.007202 458.666901,730.045410 459.612000,722.809509 
z"/>
<path fill="#000000" opacity="1.000000" stroke="none" 
	d="
M693.129578,706.320374 
	C695.983887,706.931030 697.880432,708.667053 700.447083,710.044678 
	C701.480042,704.156494 700.789307,698.708435 700.989624,693.306213 
	C701.098633,690.365967 700.974670,687.621521 705.320312,687.663635 
	C709.818481,687.707275 709.326355,690.650513 709.327454,693.476624 
	C709.333008,707.469543 709.344360,721.462463 709.298096,735.455261 
	C709.291260,737.518372 709.822083,740.071838 706.513123,740.305847 
	C703.940918,740.487793 701.261047,740.826843 701.288879,736.838135 
	C692.759583,743.175110 686.318420,743.723450 680.124451,738.857239 
	C673.746826,733.846863 671.379761,723.937866 674.706970,716.179260 
	C677.964355,708.583679 684.426270,705.002319 693.129578,706.320374 
M682.665649,727.819885 
	C686.206055,732.846069 690.847229,734.759216 695.357971,733.051636 
	C700.402222,731.142212 703.008301,725.999023 701.499084,720.932556 
	C700.029846,716.000122 694.297241,713.088074 688.990601,714.578491 
	C683.607544,716.090271 680.969177,721.105103 682.665649,727.819885 
z"/>
<path fill="#000000" opacity="1.000000" stroke="none" 
	d="
M358.574188,736.353394 
	C349.903351,724.012390 354.382233,709.582214 367.590302,706.212708 
	C377.750793,703.620667 388.243500,711.084045 389.220337,721.489258 
	C389.496826,724.434387 388.513794,725.925049 385.469391,725.916870 
	C380.144531,725.902466 374.819397,725.911194 369.494659,725.951355 
	C367.362091,725.967407 365.167542,725.585083 363.159821,726.679504 
	C364.026093,732.052307 369.879578,735.083130 375.648865,733.055481 
	C377.190491,732.513672 378.609131,731.570251 380.011444,730.694702 
	C382.755341,728.981567 384.419647,730.965759 386.036865,732.531982 
	C388.079224,734.510071 386.082916,735.803772 384.870270,737.038574 
	C377.995697,744.038757 366.866730,743.841736 358.574188,736.353394 
M368.467346,714.558472 
	C366.683716,715.336792 364.914215,716.129395 364.216187,718.640320 
	C369.267059,719.041321 373.926208,719.379761 379.049988,718.340881 
	C376.400391,714.372070 372.971985,713.961792 368.467346,714.558472 
z"/>
<path fill="#000000" opacity="1.000000" stroke="none" 
	d="
M728.341431,725.896851 
	C724.588684,725.970642 725.520020,727.749939 726.633972,729.458374 
	C729.028931,733.131653 734.983337,734.700500 739.661011,732.824829 
	C741.187195,732.212891 742.526062,731.148438 744.023376,730.446045 
	C746.629150,729.223450 748.048035,731.280029 749.484741,732.765015 
	C750.876709,734.203674 749.749084,735.517395 748.751282,736.677490 
	C744.104736,742.079712 733.627747,743.653137 726.567505,740.019226 
	C719.363220,736.311157 715.981018,728.168884 717.845825,719.022522 
	C719.291443,711.932251 726.458679,706.063171 734.073975,705.733582 
	C742.291443,705.377930 749.429260,710.483948 751.755005,718.381653 
	C753.542419,724.451355 752.494812,725.896851 746.177795,725.926147 
	C740.354492,725.953186 734.530884,725.914307 728.341431,725.896851 
M730.809875,714.893860 
	C729.383301,715.671204 727.791687,716.287415 727.412415,718.696045 
	C732.334900,719.088379 737.101685,719.347900 742.415222,718.308533 
	C739.342163,713.866516 735.520935,713.906921 730.809875,714.893860 
z"/>
<path fill="#000000" opacity="1.000000" stroke="none" 
	d="
M279.454987,712.566101 
	C281.095795,707.610535 282.878510,703.098450 284.058655,698.433960 
	C285.191162,693.957703 287.497620,691.937866 292.179626,692.624451 
	C294.277008,692.932007 296.493317,692.321594 298.478760,693.231873 
	C299.582031,695.284241 298.335968,696.919922 297.793823,698.572693 
	C293.541260,711.536743 289.213959,724.476196 284.908325,737.422913 
	C282.004028,746.155884 278.845764,747.622559 268.775146,744.501709 
	C272.295593,733.979187 275.814514,723.461060 279.454987,712.566101 
z"/>
<path fill="#000000" opacity="1.000000" stroke="none" 
	d="
M653.284424,706.204956 
	C663.487305,709.313354 668.955566,717.337402 667.414551,726.484436 
	C665.840088,735.829346 658.076782,741.770142 648.041931,741.309082 
	C639.572266,740.919922 632.205200,733.667969 631.431396,724.919739 
	C630.377625,713.005798 642.746277,703.447205 653.284424,706.204956 
M643.574219,731.133057 
	C648.994568,733.936768 653.153931,733.593872 656.742310,729.931213 
	C659.545593,727.069824 660.629883,723.739929 658.761108,719.954895 
	C656.588074,715.553772 652.849976,713.784119 648.096069,714.343506 
	C644.097717,714.814026 641.562256,717.345154 640.039246,720.940369 
	C638.330688,724.973572 640.175537,727.977661 643.574219,731.133057 
z"/>
<path fill="#000000" opacity="1.000000" stroke="none" 
	d="
M407.168945,530.556274 
	C417.216431,534.118591 424.619019,540.083923 428.980896,549.579102 
	C430.178345,552.185791 430.018890,553.988647 427.092468,555.042053 
	C426.317078,555.321228 425.617676,555.804626 424.865326,556.155396 
	C415.328613,560.601624 415.338867,560.591675 409.217987,552.247375 
	C406.781158,548.925415 403.586792,546.394409 399.610168,545.513184 
	C396.115265,544.738647 395.091705,542.788513 394.875427,539.599304 
	C394.099152,528.151306 395.315826,527.180359 407.168945,530.556274 
z"/>
<path fill="#000000" opacity="1.000000" stroke="none" 
	d="
M572.421021,726.752991 
	C572.418762,730.214111 572.338318,733.212585 572.431702,736.205627 
	C572.521667,739.088867 571.456909,740.439697 568.369385,740.411438 
	C565.394104,740.384216 564.104309,739.198853 564.127441,736.270935 
	C564.166870,731.277527 564.157959,726.282715 564.088074,721.289673 
	C564.035156,717.509338 563.924805,713.599915 558.724731,713.364319 
	C555.089050,713.199524 551.619934,716.908997 551.377991,721.404785 
	C551.136780,725.887451 551.235962,730.391174 551.271057,734.885010 
	C551.294922,737.936218 551.193604,740.502014 546.922791,740.438538 
	C542.935608,740.379333 542.828064,737.964966 542.834229,735.119873 
	C542.851135,727.295837 542.770325,719.471008 542.857056,711.647949 
	C542.909119,706.946838 546.174683,704.836853 550.093628,707.487366 
	C552.346436,709.011047 553.424805,708.417664 555.257141,707.445312 
	C563.992493,702.809937 572.227722,707.828125 572.373474,717.798157 
	C572.414856,720.627686 572.405029,723.458008 572.421021,726.752991 
z"/>
<path fill="#000000" opacity="1.000000" stroke="none" 
	d="
M394.952515,710.362183 
	C397.066833,705.761047 399.708221,705.529114 404.432709,709.180542 
	C405.651855,708.440430 406.870026,707.569763 408.195709,706.917786 
	C415.656403,703.248901 424.030792,708.113525 424.332458,716.366089 
	C424.569061,722.838379 424.603821,729.318787 424.676361,735.796143 
	C424.711884,738.968506 423.493225,740.623840 419.884125,740.428406 
	C416.262024,740.232178 416.597595,737.999023 416.613586,735.617981 
	C416.645966,730.795959 416.699951,725.971558 416.587402,721.151855 
	C416.497192,717.288513 415.800018,713.627197 410.850555,713.356567 
	C407.396729,713.167725 403.726685,716.652466 403.447327,720.785034 
	C403.111481,725.752808 403.220856,730.756409 403.276001,735.742920 
	C403.308685,738.700378 402.508392,740.413330 399.080658,740.426819 
	C395.642212,740.440308 394.839142,738.708496 394.864105,735.763245 
	C394.934509,727.449524 394.912170,719.134949 394.952515,710.362183 
z"/>
<path fill="#000000" opacity="1.000000" stroke="none" 
	d="
M694.644226,597.874756 
	C694.263855,594.173279 695.119080,592.964844 699.048645,593.151123 
	C707.295715,593.542053 715.585632,592.952698 723.858826,592.894409 
	C731.639771,592.839661 736.286377,600.128357 733.025269,607.094116 
	C732.288391,608.667969 730.959045,609.167419 729.369751,609.174561 
	C719.431458,609.219116 709.492310,609.179688 699.555420,609.317566 
	C695.901611,609.368225 693.722290,608.521179 694.509094,604.209839 
	C694.861938,602.276917 694.611023,600.233765 694.644226,597.874756 
z"/>
<path fill="#000000" opacity="1.000000" stroke="none" 
	d="
M303.204285,581.650757 
	C305.780823,581.347778 307.690338,581.517273 308.097687,584.227905 
	C308.937347,589.814758 313.144318,591.761963 317.825806,592.867859 
	C321.313446,593.691589 323.409821,594.941833 321.905975,598.952881 
	C321.630981,599.686401 321.806427,600.592651 321.792572,601.419495 
	C321.662567,609.177795 321.635559,609.493835 313.903412,608.804565 
	C302.746429,607.809937 291.980103,600.893188 289.896057,587.996399 
	C289.206512,583.729309 290.215393,581.601807 294.811676,581.778809 
	C297.465027,581.881042 300.128906,581.709839 303.204285,581.650757 
z"/>
<path fill="#000000" opacity="1.000000" stroke="none" 
	d="
M395.850800,597.832886 
	C396.809540,595.093567 399.012115,593.834412 401.101044,592.482361 
	C405.549316,589.603210 410.177856,586.922791 411.843781,581.352234 
	C412.473846,579.245300 413.878662,578.903015 415.701538,579.867859 
	C417.901215,581.032227 420.057922,582.278198 422.263855,583.430176 
	C429.928314,587.432800 429.988922,587.461060 425.205414,594.477600 
	C419.652313,602.623047 411.529510,606.869263 402.184998,608.936096 
	C396.485291,610.196655 395.233612,608.849854 395.220947,602.906799 
	C395.217377,601.223816 395.342377,599.650757 395.850800,597.832886 
z"/>
<path fill="#000000" opacity="1.000000" stroke="none" 
	d="
M623.363892,715.310547 
	C620.117737,714.048218 617.160339,713.774353 614.241699,714.863953 
	C609.812500,716.517578 606.723328,721.584045 607.644592,725.421509 
	C608.959534,730.898499 613.689270,734.219360 619.127563,733.573914 
	C621.897522,733.245117 624.353149,731.445435 627.232666,731.751648 
	C629.270264,738.503174 628.451965,739.903320 621.658325,741.500000 
	C613.637756,743.385132 606.208923,740.258301 602.001160,733.225891 
	C598.165222,726.815002 598.988464,717.523804 603.905640,711.731812 
	C608.590393,706.213623 618.120056,704.185059 625.002563,706.969421 
	C628.816528,708.512512 628.490295,711.570557 628.004395,714.467346 
	C627.500183,717.473145 625.375854,716.007996 623.363892,715.310547 
z"/>
<path fill="#000000" opacity="1.000000" stroke="none" 
	d="
M475.657501,716.889404 
	C475.552734,711.543396 477.858978,708.265747 482.449646,706.556152 
	C487.538177,704.661011 491.897125,706.370239 495.972626,709.342163 
	C497.167633,710.213562 497.864594,711.426270 496.717987,712.730469 
	C495.286285,714.358887 493.695862,716.032288 491.178650,715.229492 
	C488.647736,714.422424 486.172272,713.482483 483.589355,715.515137 
	C484.772003,719.718140 488.714996,719.561157 491.457520,721.022705 
	C495.208862,723.021851 498.056030,725.646545 498.218109,730.152405 
	C498.365997,734.263489 496.629822,737.622131 493.217743,739.923157 
	C488.680939,742.982605 482.614594,742.791748 478.241882,739.458557 
	C476.737366,738.311707 474.260437,737.069336 475.383423,734.835571 
	C476.445374,732.723145 478.953979,731.881470 481.441956,732.406311 
	C483.368530,732.812744 485.148712,734.031189 487.232819,733.503967 
	C488.719757,733.127747 490.208893,732.522644 490.410583,730.769165 
	C490.591888,729.193176 489.331635,728.407898 488.101654,727.859314 
	C485.976379,726.911438 483.754639,726.175537 481.648163,725.190674 
	C478.305817,723.627930 475.819824,721.332642 475.657501,716.889404 
z"/>
<path fill="#000000" opacity="1.000000" stroke="none" 
	d="
M459.685822,574.890869 
	C452.706665,574.661072 452.590393,574.575378 452.825409,567.617004 
	C452.914001,564.995544 453.237885,562.381958 453.475769,559.507629 
	C462.249939,558.259399 470.860931,558.815125 479.445404,558.907043 
	C481.694275,558.931091 483.045746,560.435303 483.211639,562.786865 
	C483.235016,563.118225 483.224243,563.451782 483.240051,563.783813 
	C483.751465,574.512329 482.924927,575.330444 472.018372,575.086609 
	C468.040100,574.997681 464.059937,574.995300 459.685822,574.890869 
z"/>
<path fill="#000000" opacity="1.000000" stroke="none" 
	d="
M250.786072,710.656006 
	C256.323761,708.925171 261.224243,706.422058 266.615112,705.679199 
	C269.410461,712.738037 268.431610,715.105469 261.325134,719.013977 
	C268.431458,722.731873 269.416809,725.105957 266.650574,732.794006 
	C259.199066,730.819214 251.912720,728.184753 244.891251,724.988586 
	C241.509155,723.448975 242.325882,714.168640 245.736450,712.463867 
	C247.208511,711.728088 248.847534,711.326355 250.786072,710.656006 
z"/>
<path fill="#000000" opacity="1.000000" stroke="none" 
	d="
M783.092773,718.082153 
	C783.778259,723.116455 781.767456,725.542236 777.280029,726.745911 
	C771.286682,728.353516 765.714294,731.426575 759.543762,732.615906 
	C757.536865,723.808960 757.911194,723.014832 765.543701,718.960144 
	C758.015808,715.326660 757.363770,713.936218 759.617798,705.566284 
	C767.028809,707.362061 774.059021,710.315002 781.195312,712.901611 
	C783.320923,713.671936 783.036743,715.826904 783.092773,718.082153 
z"/>
<path fill="#000000" opacity="1.000000" stroke="none" 
	d="
M308.590271,719.562256 
	C308.419952,716.919556 308.292480,714.726746 305.510773,714.079041 
	C303.577667,713.628845 302.890594,712.231750 302.907745,710.350098 
	C302.924683,708.491821 303.484192,707.093323 305.552368,706.734619 
	C308.452362,706.231567 308.528015,703.907349 308.554932,701.737000 
	C308.585968,699.235840 309.156860,697.659851 312.165985,697.616760 
	C315.140900,697.574341 317.074860,698.273132 317.054688,701.632446 
	C317.038452,704.333130 318.295288,706.068604 320.971100,706.631531 
	C323.133057,707.086365 323.297363,708.667297 323.310669,710.430908 
	C323.324493,712.262146 322.946167,713.847046 320.805450,714.084961 
	C317.416016,714.461609 317.053864,716.807800 317.054199,719.494141 
	C317.054840,724.991638 316.996582,730.489319 317.021667,735.986633 
	C317.035217,738.959839 316.060608,740.615845 312.669037,740.578918 
	C309.327301,740.542603 308.419891,739.139221 308.547974,735.991272 
	C308.764526,730.669067 308.602325,725.331421 308.590271,719.562256 
z"/>
<path fill="#000000" opacity="1.000000" stroke="none" 
	d="
M346.969666,705.782471 
	C349.777161,706.122070 350.480621,707.482727 349.730835,709.683350 
	C349.013031,711.790222 349.073059,714.217346 345.969147,714.906921 
	C338.997925,716.455688 337.620880,718.238708 337.405548,725.328674 
	C337.279327,729.484680 337.390839,733.648254 337.417419,737.808350 
	C337.434296,740.450317 335.640076,740.726318 333.682343,740.592102 
	C331.786316,740.462158 329.338043,740.886353 329.327515,737.842651 
	C329.295837,728.703247 329.344971,719.563477 329.343597,710.423889 
	C329.343201,707.720825 330.929779,705.744019 333.278503,706.788086 
	C338.092438,708.928223 342.173401,706.376343 346.969666,705.782471 
z"/>
<path fill="#000000" opacity="1.000000" stroke="none" 
	d="
M535.104858,714.168945 
	C535.096191,721.635864 535.016174,728.625671 535.113159,735.613037 
	C535.158264,738.863586 534.106506,740.459534 530.547791,740.532837 
	C526.769043,740.610657 526.661865,738.435547 526.676758,735.718567 
	C526.719666,727.897888 526.690613,720.076721 526.685486,712.255798 
	C526.683716,709.536194 526.415100,706.808411 530.506409,706.732849 
	C534.514954,706.658875 535.237976,708.974976 535.117004,712.193237 
	C535.098267,712.691895 535.108826,713.191589 535.104858,714.168945 
z"/>
<path fill="#000000" opacity="1.000000" stroke="none" 
	d="
M533.846924,691.919556 
	C537.779175,696.607666 537.012085,701.217896 532.427124,702.188904 
	C529.884277,702.727417 527.418762,702.455994 525.804749,699.991516 
	C524.371948,697.803833 524.414001,695.543213 525.988586,693.507812 
	C527.960022,690.959351 530.535583,690.352600 533.846924,691.919556 
z"/>
</svg>