<?xml version="1.0" encoding="utf-8"?>
<!-- Generator: Adobe Illustrator 18.1.1, SVG Export Plug-In . SVG Version: 6.00 Build 0)  -->
<svg version="1.1" xmlns="http://www.w3.org/2000/svg" xmlns:xlink="http://www.w3.org/1999/xlink" x="0px" y="0px"
	 viewBox="0 0 135 135" enable-background="new 0 0 135 135" xml:space="preserve">
<g id="BACKGROUND">
</g>
<g id="OBJECTS">
	<g>
		<g>
			<g>
				<g>
					<g>
						<g id="XMLID_82_">
							<path id="XMLID_84_" fill="#002C8A" d="M67.8,63.2c-1.1,0-2-1.7-2-3.7V41.9c0-2,0.9-3.7,2-3.7c1.1,0,2,1.7,2,3.7v17.6
								C69.8,61.6,68.9,63.2,67.8,63.2z"/>
						</g>
						<g>
							<g id="XMLID_79_">
								<path id="XMLID_81_" fill="#002C8A" d="M86.2,68.5H31.9c-1.1,0-2-0.9-2-2c0-1.1,0.9-2,2-2h52.3v-7.4c0-1.1,0.9-2,2-2
									c1.1,0,2,0.9,2,2v9.4C88.2,67.7,87.3,68.5,86.2,68.5z"/>
							</g>
							<g id="XMLID_73_">
								<g id="XMLID_74_">
									<path id="XMLID_75_" fill="#002C8A" d="M86.2,57.1c-3.9,0-7.1-3.2-7.1-7.1s3.2-7.1,7.1-7.1c3.9,0,7.1,3.2,7.1,7.1
										S90.1,57.1,86.2,57.1z M86.2,47.5c-1.4,0-2.6,1.2-2.6,2.6c0,1.4,1.2,2.6,2.6,2.6c1.4,0,2.6-1.2,2.6-2.6
										C88.8,48.6,87.7,47.5,86.2,47.5z"/>
								</g>
							</g>
						</g>
						<g id="XMLID_67_">
							<g id="XMLID_68_">
								<path id="XMLID_69_" fill="#002C8A" d="M105.7,67.9c-6,0-10.8-4.8-10.8-10.8s4.8-10.8,10.8-10.8s10.8,4.8,10.8,10.8
									S111.7,67.9,105.7,67.9z M105.7,53.2c-2.2,0-3.9,1.8-3.9,3.9c0,2.2,1.8,3.9,3.9,3.9s3.9-1.8,3.9-3.9
									C109.6,54.9,107.9,53.2,105.7,53.2z"/>
							</g>
						</g>
						<g>
							<g id="XMLID_65_">
								<path id="XMLID_66_" fill="#002C8A" d="M31.3,55.4c0-1.1,1.2-2,2.7-2h20c1.5,0,2.7,0.9,2.7,2c0,1.1-1.2,2-2.7,2H34
									C32.5,57.4,31.3,56.5,31.3,55.4z"/>
							</g>
							<g>
								<g id="XMLID_63_">
									<path id="XMLID_64_" fill="#002C8A" d="M45.3,43.6l16.9,16.9c0.8,0.8,0.8,2,0,2.8c-0.8,0.8-2,0.8-2.8,0L43.9,47.8L29,62.7
										c-0.8,0.8-2,0.8-2.8,0s-0.8-2,0-2.8l16.3-16.3C43.3,42.8,44.6,42.8,45.3,43.6z"/>
								</g>
								<g id="XMLID_58_">
									<g id="XMLID_59_">
										<path id="XMLID_60_" fill="#002C8A" d="M27.9,60.9c2.1,2.1,2.1,5.5,0,7.6s-5.5,2.1-7.6,0s-2.1-5.5,0-7.6
											C22.4,58.8,25.8,58.8,27.9,60.9z M22.7,66.1c0.8,0.8,2,0.8,2.8,0s0.8-2,0-2.8s-2-0.8-2.8,0S21.9,65.3,22.7,66.1z"/>
									</g>
								</g>
							</g>
						</g>
					</g>
					<g>
						<g>
							<g id="XMLID_53_">
								<g id="XMLID_54_">
									<path id="XMLID_55_" fill="#002C8A" d="M75.2,87.1c-4.2,0-7.6-3.4-7.6-7.6s3.4-7.6,7.6-7.6s7.6,3.4,7.6,7.6
										S79.4,87.1,75.2,87.1z M75.2,76.7c-1.5,0-2.8,1.3-2.8,2.8c0,1.5,1.3,2.8,2.8,2.8S78,81,78,79.5
										C78,77.9,76.7,76.7,75.2,76.7z"/>
								</g>
							</g>
							<g id="XMLID_48_">
								<g id="XMLID_49_">
									<path id="XMLID_50_" fill="#002C8A" d="M91.3,87.1c-4.2,0-7.6-3.4-7.6-7.6s3.4-7.6,7.6-7.6s7.6,3.4,7.6,7.6
										S95.5,87.1,91.3,87.1z M91.3,76.7c-1.5,0-2.8,1.3-2.8,2.8c0,1.5,1.3,2.8,2.8,2.8c1.5,0,2.8-1.3,2.8-2.8
										C94.1,77.9,92.9,76.7,91.3,76.7z"/>
								</g>
							</g>
						</g>
						<text transform="matrix(1 0 0 1 20.4375 87.6403)" fill="#002C8A" font-family="'Captureit'" font-size="23.8727">SCH     L</text>
					</g>
				</g>
				<g id="XMLID_46_">
					<path id="XMLID_47_" fill="#002C8A" d="M6.6,75.3C6.7,59.1,13.2,44,24.6,32.6c11.5-11.4,26.7-17.7,42.9-17.7
						c16.2,0,31.4,6.3,42.9,17.7c11.5,11.4,17.9,26.5,18.1,42.7l-4.8,0c-0.3-30.7-25.5-55.6-56.2-55.6c-30.7,0-55.9,24.9-56.2,55.6
						L6.6,75.3z"/>
				</g>
			</g>
			<g id="XMLID_41_">
				<circle id="XMLID_45_" fill="#002C8A" cx="126.1" cy="79.2" r="2.9"/>
				<path id="XMLID_42_" fill="#002C8A" d="M126.1,84.4c-2.9,0-5.3-2.4-5.3-5.3c0-2.9,2.4-5.3,5.3-5.3s5.3,2.4,5.3,5.3
					C131.4,82.1,129,84.4,126.1,84.4z M126.1,78.7c-0.3,0-0.5,0.2-0.5,0.5c0,0.3,0.2,0.5,0.5,0.5s0.5-0.2,0.5-0.5
					C126.6,78.9,126.4,78.7,126.1,78.7z"/>
			</g>
			<g id="XMLID_31_">
				<circle id="XMLID_35_" fill="#002C8A" cx="8.7" cy="79.5" r="2.8"/>
				<path id="XMLID_32_" fill="#002C8A" d="M13.9,79.5c0,2.8-2.3,5.1-5.1,5.1c-2.8,0-5.1-2.3-5.1-5.1c0-2.8,2.3-5.1,5.1-5.1
					C11.6,74.4,13.9,76.7,13.9,79.5z M8.2,79.5c0,0.3,0.2,0.5,0.5,0.5c0.3,0,0.5-0.2,0.5-0.5C9.3,79.2,9,79,8.7,79
					C8.5,79,8.2,79.2,8.2,79.5z"/>
			</g>
		</g>
		<g id="XMLID_36_">
			<linearGradient id="XMLID_39_" gradientUnits="userSpaceOnUse" x1="67.5" y1="145.5187" x2="67.5" y2="26.0862">
				<stop  offset="0" style="stop-color:#2C4D8D"/>
				<stop  offset="0.1208" style="stop-color:#2D458A"/>
				<stop  offset="0.5023" style="stop-color:#313283"/>
				<stop  offset="0.7649" style="stop-color:#322B80"/>
				<stop  offset="0.7746" style="stop-color:#383888"/>
				<stop  offset="0.8184" style="stop-color:#5070AC"/>
				<stop  offset="0.861" style="stop-color:#639EC9"/>
				<stop  offset="0.9015" style="stop-color:#73C2DF"/>
				<stop  offset="0.9392" style="stop-color:#7EDCF0"/>
				<stop  offset="0.9731" style="stop-color:#85ECFA"/>
				<stop  offset="1" style="stop-color:#87F1FD"/>
			</linearGradient>
			<path id="XMLID_37_" fill="url(#XMLID_39_)" d="M127,99.4H8c-2.4,0-4.4-0.9-4.4-2.1c0-1.2,2-2.1,4.4-2.1h119
				c2.4,0,4.4,0.9,4.4,2.1C131.4,98.4,129.4,99.4,127,99.4z"/>
		</g>
		<g>
			<text transform="matrix(1 0 0 1 23.1142 115.3131)" font-family="'TwCenMT-Regular'" font-size="17.1402">trends in code</text>
			<g>
				<path fill="#2D4375" d="M10.8,109.8l4.9-1.7v2.2l-2.4,0.6l2.4,0.7v2.2l-4.9-1.8V109.8z"/>
				<path fill="#2D4375" d="M19.8,105.5h2.6l-3.6,10.9h-2.6L19.8,105.5z"/>
				<path fill="#2D4375" d="M119.4,111.6l2.4-0.7l-2.4-0.6v-2.2l4.9,1.7v2.2l-4.9,1.8V111.6z"/>
			</g>
		</g>
	</g>
</g>
<g id="DESIGNED_BY_FREEPIK">
</g>
</svg>
